Coordinates
version=1
nRows=8
nColumns=63
inDegrees=yes

Units are S.I. units (second, meters, Newtons, ...)
If the header above contains a line with 'inDegrees', this indicates whether rotational values are in degrees (yes) or radians (no).

endheader
time	pelvis_tilt	pelvis_list	pelvis_rotation	pelvis_tx	pelvis_ty	pelvis_tz	hip_flexion_r	hip_adduction_r	hip_rotation_r	knee_angle_r	knee_angle_r_beta	ankle_angle_r	subtalar_angle_r	mtp_angle_r	hip_flexion_l	hip_adduction_l	hip_rotation_l	knee_angle_l	knee_angle_l_beta	ankle_angle_l	subtalar_angle_l	mtp_angle_l	L5_S1_Flex_Ext	L5_S1_Lat_Bending	L5_S1_axial_rotation	L4_L5_Flex_Ext	L4_L5_Lat_Bending	L4_L5_axial_rotation	L3_L4_Flex_Ext	L3_L4_Lat_Bending	L3_L4_axial_rotation	L2_L3_Flex_Ext	L2_L3_Lat_Bending	L2_L3_axial_rotation	L1_L2_Flex_Ext	L1_L2_Lat_Bending	L1_L2_axial_rotation	L1_T12_Flex_Ext	L1_T12_Lat_Bending	L1_T12_axial_rotation	Abs_r3	Abs_r2	Abs_r1	Abs_t1	Abs_t2	neck_flexion	neck_bending	neck_rotation	arm_flex_r	arm_add_r	arm_rot_r	elbow_flex_r	pro_sup_r	wrist_flex_r	wrist_dev_r	arm_flex_l	arm_add_l	arm_rot_l	elbow_flex_l	pro_sup_l	wrist_flex_l	wrist_dev_l
      2.65000000	      3.39587343	      3.17775859	    100.79091260	      0.13377500	      0.60346506	      0.85103870	      1.78647661	      0.15160083	    -12.59011506	      8.06818585	      0.14081641	     29.23643255	     12.62836495	      0.00000000	      2.05671353	      1.37990647	     12.35517138	      4.39485200	      0.07670464	     21.70057108	    -12.19039810	      0.00000000	      0.01163782	     -0.26162095	     -1.63111753	      0.02161260	     -0.34795586	     -1.73306237	      0.01911978	     -0.63610518	     -1.73306237	      0.01330087	     -0.63610518	     -1.42722784	      0.01080688	     -0.53349744	     -1.32528299	      0.00664985	     -0.40525085	     -1.22333815	      0.08312780	     -2.95950850	     -9.07178636	      0.00000000	      0.00000000	      1.75356435	      6.48154631	      6.00060130	     51.33692856	      8.91041291	     25.57133358	    135.71306604	     88.26845938	    -18.45711373	     22.65677578	     23.06171026	      1.41323422	    156.85622916	      0.17606809	      1.07399623	    -40.50056076	    -24.16919842
      2.66666667	      2.66039615	      3.04075049	    101.02382118	      0.13697400	      0.60271398	      0.84941614	      1.58271909	     -0.34222190	    -12.34709587	      7.72713342	      0.13486392	     29.86401649	     12.44181773	      0.00000000	      1.95760846	      1.90832863	     12.07220907	      4.17261132	      0.07282581	     22.07146131	    -11.37210271	      0.00000000	      0.01025795	     -0.42335116	     -1.85882005	      0.01905004	     -0.56305704	     -1.97499630	      0.01685279	     -1.02933601	     -1.97499630	      0.01172381	     -1.02933601	     -1.62646754	      0.00952553	     -0.86329769	     -1.51029129	      0.00586139	     -0.65577095	     -1.39411504	      0.07327152	     -4.78903300	    -10.33819947	      0.00000000	      0.00000000	      2.29007180	      8.02926459	      5.74218802	     51.08606997	     10.33963647	     25.42944064	    136.04857583	     88.28551725	    -18.33096470	     22.47412743	     21.51666254	     -0.58870053	    150.82064174	      0.20408888	      0.94447217	    -26.30753725	    -24.29557801
      2.68333333	      1.74821896	      2.90066706	    101.18672455	      0.14082677	      0.60196224	      0.84777137	      1.37127728	     -0.98635513	    -11.92744758	      7.44845929	      0.13000014	     30.50628665	     12.07787175	      0.00000000	      1.81905229	      2.57118765	     11.40520139	      3.92416186	      0.06848954	     22.50163092	    -10.10127533	      0.00000000	      0.00261587	     -0.61759716	     -2.07716907	      0.00485794	     -0.82140422	     -2.20699213	      0.00429762	     -1.50162573	     -2.20699213	      0.00298968	     -1.50162573	     -1.81752293	      0.00242910	     -1.25940413	     -1.68769987	      0.00149471	     -0.95665800	     -1.55787680	      0.01868493	     -6.98638257	    -11.55259120	      0.00000000	      0.00000000	      3.02085206	      9.80611256	      5.14955545	     50.74608717	     11.83197540	     25.22056421	    136.31775392	     88.31850424	    -18.25711273	     22.14699525	     19.85045194	     -2.80034776	    148.34277045	      0.22768199	      0.94331111	    -19.81122439	    -24.22360072
      2.70000000	      0.79090994	      2.77852376	    101.27412387	      0.14473509	      0.60140011	      0.84622321	      1.15800057	     -1.66099778	    -11.04776598	      7.22570509	      0.12611234	     31.02673831	     11.14578284	      0.00000000	      1.70140218	      3.25182538	      9.68672436	      3.76387947	      0.06569209	     23.21292302	     -7.45138246	      0.00000000	     -0.01067819	     -0.81673214	     -2.26490400	     -0.01983046	     -1.08625375	     -2.40646050	     -0.01754320	     -1.98580254	     -2.40646050	     -0.01220410	     -1.98580254	     -1.98179100	     -0.00991577	     -1.66548019	     -1.84023450	     -0.00610152	     -1.26511809	     -1.69867800	     -0.07627323	     -9.23903736	    -12.59671656	      0.00000000	      0.00000000	      3.84576154	     11.64493857	      4.42943818	     50.41162003	     13.18975516	     25.00174085	    136.51855374	     88.36854346	    -18.18532056	     21.85354291	     18.18092851	     -4.95748023	    148.36241440	      0.24272733	      1.04049892	    -18.17158588	    -24.05633638
      2.71666667	     -0.11655398	      2.69257509	    101.34596907	      0.14826959	      0.60101411	      0.84477021	      0.91055727	     -2.35505055	    -10.83554092	      7.03309374	      0.12275064	     31.50853717	     11.02785977	      0.00000000	      1.49678235	      3.95755991	      9.54884716	      3.52271171	      0.06148292	     23.25789139	     -7.20353989	      0.00000000	     -0.03186894	     -1.00065635	     -2.43086401	     -0.05918381	     -1.33087295	     -2.58279301	     -0.05235748	     -2.43299586	     -2.58279301	     -0.03642301	     -2.43299586	     -2.12700601	     -0.02959350	     -2.04053844	     -1.97507701	     -0.01820991	     -1.55001669	     -1.82314801	     -0.22763665	    -11.31962480	    -13.51973635	      0.00000000	      0.00000000	      4.83809000	     13.12389714	      3.73901478	     50.11025240	     14.43407864	     24.82564738	    136.68919384	     88.41407413	    -18.22619850	     21.63492233	     16.55383528	     -6.97382968	    148.95788629	      0.25406823	      1.23315422	    -18.04439223	    -23.78708405
      2.73333333	     -0.94376311	      2.65818296	    101.50110970	      0.15164247	      0.60111759	      0.84312988	      0.55455936	     -2.89765813	    -10.01278090	      6.76124262	      0.11800595	     31.72978957	      9.92865344	      0.00000000	      1.27704156	      4.51568831	      8.29619629	      3.37949652	      0.05898334	     23.65596851	     -5.09351136	      0.00000000	     -0.05873942	     -1.18722032	     -2.52924976	     -0.10908498	     -1.57900303	     -2.68732787	     -0.09650300	     -2.88660749	     -2.68732787	     -0.06713329	     -2.88660749	     -2.21309354	     -0.05454543	     -2.42097968	     -2.05501543	     -0.03356371	     -1.83900428	     -1.89693732	     -0.41956983	    -13.43007370	    -14.06692841	      0.00000000	      0.00000000	      5.72778333	     14.93393795	      1.68392617	     49.64550008	     15.17516491	     24.37174341	    137.09006694	     88.45082872	    -17.90484356	     21.20383351	     15.16423414	     -8.87738815	    151.28810308	      0.26125542	      1.35505095	    -19.00707673	    -23.20025134
      2.75000000	     -1.60040434	      2.62595941	    101.63106116	      0.15426864	      0.60123797	      0.84148639	      0.19562508	     -3.33745174	     -9.72441949	      6.44788537	      0.11253683	     31.86462416	      9.51113693	      0.00000000	      1.02376750	      4.97147934	      7.99313199	      3.17330164	      0.05538456	     23.67632616	     -4.37076081	      0.00000000	     -0.08115751	     -1.33491329	     -2.63912693	     -0.15071762	     -1.77543467	     -2.80407236	     -0.13333368	     -3.24570817	     -2.80407236	     -0.09275492	     -3.24570817	     -2.30923606	     -0.07536287	     -2.72215518	     -2.14429063	     -0.04637340	     -2.06778068	     -1.97934520	     -0.57970000	    -15.10080610	    -14.67803223	      0.00000000	      0.00000000	      6.65377990	     16.58761113	      0.47125374	     49.29045096	     15.87918729	     24.13072385	    137.46713000	     88.47558451	    -17.99508858	     21.13598509	     13.77933849	    -10.45810474	    150.79495729	      0.28057464	      1.48179239	    -18.73896946	    -22.25542963
      2.76666667	     -2.14846667	      2.59565130	    101.65442677	      0.15655067	      0.60147953	      0.84013800	     -0.13768430	     -3.68395700	     -8.99945329	      6.07376008	      0.10600711	     31.82059261	      8.74815556	      0.00000000	      0.84824466	      5.33771160	      7.22607766	      3.09165951	      0.05395964	     23.70185005	     -3.19568460	      0.00000000	     -0.10327436	     -1.46251786	     -2.69368432	     -0.19179082	     -1.94514875	     -2.86203959	     -0.16966945	     -3.55596593	     -2.86203959	     -0.11803227	     -3.55596593	     -2.35697378	     -0.09590057	     -2.98236642	     -2.18861851	     -0.05901097	     -2.26544017	     -2.02026324	     -0.73767845	    -16.54429454	    -14.98146406	      0.00000000	      0.00000000	      7.59913931	     17.67689803	     -1.31679787	     48.98475157	     16.36045507	     23.77569124	    137.85655229	     88.48146788	    -17.95494179	     21.28129670	     12.71289308	    -11.73626236	    148.80055726	      0.30680537	      1.49832405	    -17.63653355	    -20.91558410
